HIERARCHY
ROOT Hips
{
	OFFSET 0.351881 -0.041802 1.321996
	CHANNELS 6 Xposition Yposition Zposition Zrotation Yrotation Xrotation 
	JOINT Spine
	{
		OFFSET -0.000004 8.340413 -2.713947
		CHANNELS 3 Zrotation Yrotation Xrotation
		JOINT Spine1
		{
			OFFSET 0.000011 11.910000 -2.100049
			CHANNELS 3 Zrotation Yrotation Xrotation
			JOINT Spine2
			{
				OFFSET 0.000002 12.047670 -1.054048
				CHANNELS 3 Zrotation Yrotation Xrotation
				JOINT Spine3
				{
					OFFSET 0.000053 12.093718 0.000036
					CHANNELS 3 Zrotation Yrotation Xrotation
					JOINT Neck
					{
						OFFSET -0.000061 15.549090 1.554886
						CHANNELS 3 Zrotation Yrotation Xrotation
						JOINT Neck1
						{
							OFFSET 0.000014 4.687313 0.410087
							CHANNELS 3 Zrotation Yrotation Xrotation
							JOINT Head
							{
								OFFSET 0.000047 4.633801 0.817063
								CHANNELS 3 Zrotation Yrotation Xrotation
								JOINT HeadEnd
								{
									OFFSET -0.000020 9.727776 0.000015
									CHANNELS 3 Zrotation Yrotation Xrotation
									End Site
									{
										OFFSET 0.000000 0.000000 0.000000
									}
								}
							}
						}
					}
					JOINT RightShoulder
					{
						OFFSET 0.000040 11.106515 6.072600
						CHANNELS 3 Zrotation Yrotation Xrotation
						JOINT RightArm
						{
							OFFSET -19.427917 0.000091 0.000008
							CHANNELS 3 Zrotation Yrotation Xrotation
							JOINT RightForeArm
							{
								OFFSET -29.350728 0.000024 0.000014
								CHANNELS 3 Zrotation Yrotation Xrotation
								JOINT RightHand
								{
									OFFSET -27.018044 0.000027 0.000090
									CHANNELS 3 Zrotation Yrotation Xrotation
									JOINT RightHandMiddle1
									{
										OFFSET -9.244027 0.000000 -0.000004
										CHANNELS 3 Zrotation Yrotation Xrotation
										JOINT RightHandMiddle2
										{
											OFFSET -4.870071 -0.000008 -0.000012
											CHANNELS 3 Zrotation Yrotation Xrotation
											JOINT RightHandMiddle3
											{
												OFFSET -3.169087 0.000007 0.000003
												CHANNELS 3 Zrotation Yrotation Xrotation
												JOINT RightHandMiddle4
												{
													OFFSET -1.888362 -0.000015 -0.000005
													CHANNELS 3 Zrotation Yrotation Xrotation
													End Site
													{
														OFFSET 0.000000 0.000000 0.000000
													}
												}
											}
										}
									}
									JOINT RightHandRing
									{
										OFFSET -0.250004 -0.250010 -0.956476
										CHANNELS 3 Zrotation Yrotation Xrotation
										JOINT RightHandRing1
										{
											OFFSET -8.140215 0.000039 -0.734589
											CHANNELS 3 Zrotation Yrotation Xrotation
											JOINT RightHandRing2
											{
												OFFSET -4.501563 -0.000021 -0.406251
												CHANNELS 3 Zrotation Yrotation Xrotation
												JOINT RightHandRing3
												{
													OFFSET -3.068831 0.000000 -0.276938
													CHANNELS 3 Zrotation Yrotation Xrotation
													JOINT RightHandRing4
													{
														OFFSET -1.869940 0.000011 -0.168761
														CHANNELS 3 Zrotation Yrotation Xrotation
														End Site
														{
															OFFSET 0.000000 0.000000 0.000000
														}
													}
												}
											}
										}
										JOINT RightHandPinky
										{
											OFFSET -0.163066 -0.249981 -0.975118
											CHANNELS 3 Zrotation Yrotation Xrotation
											JOINT RightHandPinky1
											{
												OFFSET -6.681458 -0.000020 -1.494091
												CHANNELS 3 Zrotation Yrotation Xrotation
												JOINT RightHandPinky2
												{
													OFFSET -3.580963 -0.000004 -0.800775
													CHANNELS 3 Zrotation Yrotation Xrotation
													JOINT RightHandPinky3
													{
														OFFSET -2.276525 -0.000024 -0.509064
														CHANNELS 3 Zrotation Yrotation Xrotation
														JOINT RightHandPinky4
														{
															OFFSET -1.690357 -0.000012 -0.377987
															CHANNELS 3 Zrotation Yrotation Xrotation
															End Site
															{
																OFFSET 0.000000 0.000000 0.000000
															}
														}
													}
												}
											}
										}
									}
									JOINT RightHandIndex
									{
										OFFSET -0.249989 -0.249997 0.956492
										CHANNELS 3 Zrotation Yrotation Xrotation
										JOINT RightHandIndex1
										{
											OFFSET -8.934076 0.000027 0.806260
											CHANNELS 3 Zrotation Yrotation Xrotation
											JOINT RightHandIndex2
											{
												OFFSET -4.694665 -0.000000 0.423664
												CHANNELS 3 Zrotation Yrotation Xrotation
												JOINT RightHandIndex3
												{
													OFFSET -2.811732 0.000021 0.253710
													CHANNELS 3 Zrotation Yrotation Xrotation
													JOINT RightHandIndex4
													{
														OFFSET -1.709895 -0.000031 0.154266
														CHANNELS 3 Zrotation Yrotation Xrotation
														End Site
														{
															OFFSET 0.000000 0.000000 0.000000
														}
													}
												}
											}
										}
										JOINT RightHandThumb1
										{
											OFFSET -0.163002 -0.749993 0.975101
											CHANNELS 3 Zrotation Yrotation Xrotation
											JOINT RightHandThumb2
											{
												OFFSET -5.411692 0.835524 2.244698
												CHANNELS 3 Zrotation Yrotation Xrotation
												JOINT RightHandThumb3
												{
													OFFSET -3.567163 0.550729 1.479619
													CHANNELS 3 Zrotation Yrotation Xrotation
													JOINT RightHandThumb4
													{
														OFFSET -2.150549 0.332034 0.892029
														CHANNELS 3 Zrotation Yrotation Xrotation
														End Site
														{
															OFFSET 0.000000 0.000000 0.000000
														}
													}
												}
											}
										}
									}
								}
							}
						}
					}
					JOINT LeftShoulder
					{
						OFFSET 0.000024 11.106468 6.072662
						CHANNELS 3 Zrotation Yrotation Xrotation
						JOINT LeftArm
						{
							OFFSET 19.427892 -0.000014 -0.000017
							CHANNELS 3 Zrotation Yrotation Xrotation
							JOINT LeftForeArm
							{
								OFFSET 29.350769 0.000022 0.000023
								CHANNELS 3 Zrotation Yrotation Xrotation
								JOINT LeftHand
								{
									OFFSET 27.018061 -0.000034 0.000006
									CHANNELS 3 Zrotation Yrotation Xrotation
									JOINT LeftHandMiddle1
									{
										OFFSET 9.402663 0.000017 -0.000006
										CHANNELS 3 Zrotation Yrotation Xrotation
										JOINT LeftHandMiddle2
										{
											OFFSET 4.950122 0.000014 -0.000003
											CHANNELS 3 Zrotation Yrotation Xrotation
											JOINT LeftHandMiddle3
											{
												OFFSET 3.211947 0.000002 -0.000016
												CHANNELS 3 Zrotation Yrotation Xrotation
												JOINT LeftHandMiddle4
												{
													OFFSET 1.927633 0.000010 0.000015
													CHANNELS 3 Zrotation Yrotation Xrotation
													End Site
													{
														OFFSET 0.000000 0.000000 0.000000
													}
												}
											}
										}
									}
									JOINT LeftHandRing
									{
										OFFSET 0.249962 -0.250007 -0.906133
										CHANNELS 3 Zrotation Yrotation Xrotation
										JOINT LeftHandRing1
										{
											OFFSET 8.286073 -0.000005 -0.747800
											CHANNELS 3 Zrotation Yrotation Xrotation
											JOINT LeftHandRing2
											{
												OFFSET 4.585526 0.000006 -0.413800
												CHANNELS 3 Zrotation Yrotation Xrotation
												JOINT LeftHandRing3
												{
													OFFSET 3.124442 0.000014 -0.281974
													CHANNELS 3 Zrotation Yrotation Xrotation
													JOINT LeftHandRing4
													{
														OFFSET 1.908792 -0.000003 -0.172248
														CHANNELS 3 Zrotation Yrotation Xrotation
														End Site
														{
															OFFSET 0.000000 0.000000 0.000000
														}
													}
												}
											}
										}
										JOINT LeftHandPinky
										{
											OFFSET 0.167543 -0.249995 -0.924965
											CHANNELS 3 Zrotation Yrotation Xrotation
											JOINT LeftHandPinky1
											{
												OFFSET 6.823473 0.000027 -1.525921
												CHANNELS 3 Zrotation Yrotation Xrotation
												JOINT LeftHandPinky2
												{
													OFFSET 3.642810 -0.000006 -0.814574
													CHANNELS 3 Zrotation Yrotation Xrotation
													JOINT LeftHandPinky3
													{
														OFFSET 2.333137 0.000009 -0.521706
														CHANNELS 3 Zrotation Yrotation Xrotation
														JOINT LeftHandPinky4
														{
															OFFSET 1.725454 0.000005 -0.385878
															CHANNELS 3 Zrotation Yrotation Xrotation
															End Site
															{
																OFFSET 0.000000 0.000000 0.000000
															}
														}
													}
												}
											}
										}
									}
									JOINT LeftHandIndex
									{
										OFFSET 0.250015 -0.250004 0.906141
										CHANNELS 3 Zrotation Yrotation Xrotation
										JOINT LeftHandIndex1
										{
											OFFSET 9.087981 -0.000013 0.820144
											CHANNELS 3 Zrotation Yrotation Xrotation
											JOINT LeftHandIndex2
											{
												OFFSET 4.776560 -0.000010 0.431057
												CHANNELS 3 Zrotation Yrotation Xrotation
												JOINT LeftHandIndex3
												{
													OFFSET 2.865143 0.000018 0.258586
													CHANNELS 3 Zrotation Yrotation Xrotation
													JOINT LeftHandIndex4
													{
														OFFSET 1.745450 0.000005 0.157494
														CHANNELS 3 Zrotation Yrotation Xrotation
														End Site
														{
															OFFSET 0.000000 0.000000 0.000000
														}
													}
												}
											}
										}
										JOINT LeftHandThumb1
										{
											OFFSET 0.167567 -0.749996 0.924955
											CHANNELS 3 Zrotation Yrotation Xrotation
											JOINT LeftHandThumb2
											{
												OFFSET 5.551484 0.857111 2.302686
												CHANNELS 3 Zrotation Yrotation Xrotation
												JOINT LeftHandThumb3
												{
													OFFSET 3.625648 0.559713 1.503911
													CHANNELS 3 Zrotation Yrotation Xrotation
													JOINT LeftHandThumb4
													{
														OFFSET 2.195247 0.338917 0.910541
														CHANNELS 3 Zrotation Yrotation Xrotation
														End Site
														{
															OFFSET 0.000000 0.000000 0.000000
														}
													}
												}
											}
										}
									}
								}
							}
						}
					}
				}
			}
		}
	}
	JOINT RightUpLeg
	{
		OFFSET -8.786538 0.000062 -0.000055
		CHANNELS 3 Zrotation Yrotation Xrotation
		JOINT RightLeg
		{
			OFFSET -0.000054 -42.170432 -0.000082
			CHANNELS 3 Zrotation Yrotation Xrotation
			JOINT RightFoot
			{
				OFFSET 0.000081 -45.949179 0.000043
				CHANNELS 3 Zrotation Yrotation Xrotation
				JOINT RightForeFoot
				{
					OFFSET 0.000015 -4.685846 0.000001
					CHANNELS 3 Zrotation Yrotation Xrotation
					JOINT RightToeBase
					{
						OFFSET -0.000061 0.000013 18.351111
						CHANNELS 3 Zrotation Yrotation Xrotation
						JOINT RightToeBaseEnd
						{
							OFFSET 0.000031 0.000031 6.416913
							CHANNELS 3 Zrotation Yrotation Xrotation
							End Site
							{
								OFFSET 0.000000 0.000000 0.000000
							}
						}
					}
				}
			}
		}
	}
	JOINT LeftUpLeg
	{
		OFFSET 8.786562 -0.000058 -0.000036
		CHANNELS 3 Zrotation Yrotation Xrotation
		JOINT LeftLeg
		{
			OFFSET -0.000006 -42.170415 0.000009
			CHANNELS 3 Zrotation Yrotation Xrotation
			JOINT LeftFoot
			{
				OFFSET -0.000026 -45.949182 0.000011
				CHANNELS 3 Zrotation Yrotation Xrotation
				JOINT LeftForeFoot
				{
					OFFSET 0.000088 -4.685824 0.000028
					CHANNELS 3 Zrotation Yrotation Xrotation
					JOINT LeftToeBase
					{
						OFFSET 0.000034 -0.000059 18.351037
						CHANNELS 3 Zrotation Yrotation Xrotation
						JOINT LeftToeBaseEnd
						{
							OFFSET -0.000044 -0.000003 7.522049
							CHANNELS 3 Zrotation Yrotation Xrotation
							End Site
							{
								OFFSET 0.000000 0.000000 0.000000
							}
						}
					}
				}
			}
		}
	}
}
MOTION
Frames: 4
Frame Time: 0.066667
0.351881 -0.041802 1.321996 -7.007592 18.332960 2.948765 9.092583 -1.311113 0.038240 -0.148728 -0.145255 -2.902064 -0.089888 0.303021 -1.954053 1.182280 0.720225 6.879981 3.716071 1.210569 4.969835 -7.980359 5.660536 0.303978 -5.145387 1.265139 1.923255 0.000983 0.001608 0.000223 7.675361 -12.591612 -1.670597 69.406097 -0.628617 23.629890 179.994659 57.235405 151.666290 -9.534353 -13.741796 0.031831 33.261780 -7.223727 -0.002781 37.092407 -0.000818 0.001242 20.763895 -0.002472 0.001568 0.000623 -0.000497 0.000946 -1.072290 -1.631008 -5.956475 36.001701 -5.112788 -3.026778 49.224987 1.803211 -3.918095 17.028223 0.225390 -1.513342 0.001168 0.002641 0.000105 -1.884791 -3.548669 -4.828051 25.605009 1.107748 -5.540734 46.404129 3.971389 -9.320952 34.423229 2.238989 -7.260827 0.000410 -0.001814 0.000305 0.704700 7.249615 -1.410698 26.589983 -13.994993 2.421238 29.883558 -0.687573 2.580275 16.963493 -0.220112 1.508176 0.001307 0.000534 0.000708 10.891454 -7.309369 56.695175 0.531129 5.358331 1.145532 -3.086138 1.904835 -1.007460 -0.000628 -0.000028 -0.001531 -10.776142 7.758475 -1.465961 -62.055824 2.113697 28.028667 179.997910 -50.741440 159.531021 -3.521525 21.266912 -0.019860 -28.256298 3.708437 0.001465 -50.575729 0.000810 0.001152 -25.806860 0.000297 -0.000874 -0.000357 0.000776 0.000422 -0.602884 1.645013 -10.821545 -23.932476 3.826688 -2.088091 -57.013603 -2.357087 -4.340222 -14.904794 -0.172942 -1.330436 0.001037 0.000324 0.000201 -0.178845 1.581101 -5.154885 -11.013447 5.803275 -2.413852 -42.872002 -3.432313 -8.751326 -30.477907 -1.762010 -6.510634 0.000053 -0.002993 -0.000248 -0.352749 -6.747966 -3.912741 -27.363750 13.489970 2.514162 -41.043907 1.255770 3.399126 -20.169249 0.311583 1.784815 -0.001483 0.000833 -0.000832 -14.255647 9.825923 54.056892 -5.488604 7.030044 1.132782 0.000000 0.000000 0.000000 0.000907 0.000565 -0.001303 5.599633 -5.719116 1.190674 -0.002743 0.002461 1.721789 0.000000 0.000000 -0.000000 -0.000000 0.000000 0.000000 0.000000 0.000000 0.000000 0.000000 0.000000 0.000000 13.956267 -8.626874 0.229888 -0.003704 0.002012 0.325376 -0.000000 -0.000000 -0.000000 0.000000 -0.000000 -0.000000 -0.000000 0.000000 0.000000 -0.000000 0.000000 -0.000000 
0.146224 -0.044897 1.468499 -7.013936 18.435387 2.724290 8.948098 -1.322408 -0.120789 -0.176512 -0.137618 -2.910775 -0.130417 0.330278 -1.918114 1.165847 0.726906 6.995938 3.906168 0.779162 6.014965 -8.067362 5.156538 0.429937 -5.113374 1.230918 1.810625 0.000954 0.000779 0.000314 7.607430 -12.542466 -1.652633 69.252151 1.529472 17.828157 179.995895 56.671299 149.331131 -9.946212 -13.344147 0.027239 33.470848 -7.245093 -0.002009 37.320229 -0.000757 0.001030 20.793022 -0.002344 0.001818 0.000409 -0.000206 0.000773 -1.122692 -1.637362 -5.775348 36.241104 -5.027196 -3.044125 49.269920 1.808100 -3.921470 17.089819 0.227339 -1.518487 0.001155 0.002549 -0.000115 -1.894970 -3.636490 -4.842918 25.678381 1.370114 -5.562576 46.703087 4.022322 -9.366611 34.601620 2.262478 -7.293619 0.000134 -0.001885 0.000554 0.716768 7.260951 -1.371795 26.998161 -14.076584 2.457352 30.341888 -0.709836 2.616373 17.413374 -0.233435 1.546650 0.000979 0.000327 0.000710 10.793169 -7.131979 56.719402 0.967744 4.911250 1.243702 -2.253206 1.382410 -0.742938 -0.000666 -0.000120 -0.001472 -10.687516 7.755223 -1.454519 -62.084908 -0.296785 22.128523 179.998062 -50.525692 157.694565 -2.587582 20.538109 -0.022134 -28.476437 3.714795 0.001284 -50.476227 0.001106 0.000720 -25.718636 0.000327 -0.000902 -0.000280 0.000735 0.000539 -0.582112 1.639548 -10.778433 -24.069077 3.824259 -2.098872 -56.904709 -2.349168 -4.334297 -14.832279 -0.171620 -1.323893 0.001001 0.000345 0.000336 -0.161197 1.578896 -5.163065 -10.963728 5.822462 -2.403031 -42.876640 -3.436397 -8.751825 -30.449183 -1.760329 -6.505985 0.000199 -0.002798 -0.000324 -0.342772 -6.745580 -3.909317 -27.624605 13.485177 2.535522 -40.988930 1.252293 3.394700 -20.201406 0.312876 1.787453 -0.001496 0.000442 -0.000744 -14.196566 9.720500 53.983192 -5.327062 7.038757 1.074866 0.000000 0.000000 0.000000 0.001097 0.000497 -0.001173 5.537254 -5.832543 1.479007 -0.002343 0.002233 1.908438 0.000000 0.000000 -0.000000 -0.000000 0.000000 0.000000 0.000000 0.000000 0.000000 0.000000 0.000000 0.000000 13.989828 -8.635860 0.388476 -0.002737 0.001883 0.514880 -0.000000 -0.000000 -0.000000 0.000000 -0.000000 -0.000000 -0.000000 0.000000 0.000000 -0.000000 -0.000000 0.000000 
-0.035799 -0.047803 1.605955 -7.019116 18.522738 2.517855 8.825688 -1.332405 -0.251992 -0.199724 -0.131445 -2.917383 -0.163037 0.350195 -1.880827 1.159100 0.732294 7.110413 4.072841 0.395481 6.937958 -8.148058 4.708013 0.542330 -5.087086 1.200845 1.712969 0.000927 0.000039 0.000404 7.553957 -12.505936 -1.639045 69.105331 3.441911 12.517411 179.996918 56.248169 147.263596 -10.365689 -13.007602 0.023753 33.642776 -7.266119 -0.001359 37.535545 -0.000710 0.000830 20.823778 -0.002235 0.002033 0.000230 0.000029 0.000625 -1.168458 -1.643525 -5.613991 36.445644 -4.951465 -3.058923 49.309414 1.812425 -3.924445 17.149160 0.229195 -1.523465 0.001148 0.002476 -0.000307 -1.903885 -3.718591 -4.853734 25.733248 1.611808 -5.580143 46.982403 4.069642 -9.409147 34.758141 2.283059 -7.322339 -0.000104 -0.001945 0.000761 0.727694 7.271810 -1.338952 27.360922 -14.155341 2.489355 30.771219 -0.730738 2.649990 17.839647 -0.246096 1.583050 0.000712 0.000153 0.000728 10.704127 -6.952858 56.732475 1.371050 4.498970 1.334599 -1.469742 0.889680 -0.494722 -0.000715 -0.000200 -0.001407 -10.614759 7.754804 -1.445626 -62.111557 -2.414920 16.670361 179.998154 -50.427101 155.941071 -1.691232 19.955507 -0.026330 -28.662369 3.718962 0.001119 -50.386700 0.001362 0.000345 -25.641768 0.000375 -0.000926 -0.000222 0.000691 0.000648 -0.563917 1.633321 -10.741857 -24.181005 3.822548 -2.107665 -56.803741 -2.341845 -4.328820 -14.770133 -0.170483 -1.318275 0.000973 0.000356 0.000448 -0.146197 1.575550 -5.171648 -10.912344 5.841927 -2.391832 -42.876839 -3.439282 -8.751662 -30.421572 -1.758631 -6.501479 0.000324 -0.002620 -0.000388 -0.333301 -6.742975 -3.907779 -27.846481 13.480334 2.553629 -40.935539 1.248818 3.390454 -20.228251 0.313955 1.789653 -0.001506 0.000109 -0.000660 -14.140883 9.626590 53.918224 -5.187919 7.049267 1.024606 0.000000 0.000000 0.000000 0.001256 0.000438 -0.001056 5.478003 -5.933064 1.733683 -0.001950 0.002009 2.078021 0.000000 0.000000 -0.000000 -0.000000 0.000000 0.000000 0.000000 0.000000 0.000000 0.000000 0.000000 0.000000 14.018121 -8.636220 0.530447 -0.001882 0.001762 0.686503 -0.000000 -0.000000 -0.000000 0.000000 -0.000000 -0.000000 -0.000000 0.000000 0.000000 -0.000000 -0.000000 0.000000 
-0.194490 -0.050520 1.734347 -7.023119 18.595003 2.329463 8.725362 -1.341104 -0.355385 -0.218364 -0.126737 -2.921888 -0.187748 0.362772 -1.842189 1.162040 0.736388 7.223400 4.216079 0.059616 7.737196 -8.222459 4.315118 0.641150 -5.066526 1.174920 1.630294 0.000902 -0.000613 0.000493 7.514932 -12.482027 -1.629828 68.965866 5.102401 7.835535 179.997772 55.966080 145.470718 -10.793077 -12.732234 0.021355 33.777580 -7.286847 -0.000832 37.738358 -0.000677 0.000643 20.856163 -0.002143 0.002214 0.000087 0.000208 0.000502 -1.209588 -1.649498 -5.472412 36.615318 -4.885640 -3.071190 49.343449 1.816182 -3.927016 17.206230 0.230958 -1.528276 0.001148 0.002421 -0.000472 -1.911536 -3.794972 -4.860497 25.769600 1.832815 -5.593383 47.242001 4.113358 -9.448595 34.892792 2.300739 -7.347011 -0.000304 -0.001993 0.000926 0.737478 7.282191 -1.312171 27.678160 -14.231458 2.517286 31.171486 -0.750283 2.681149 18.242279 -0.258097 1.617385 0.000504 0.000012 0.000762 10.624314 -6.772011 56.734432 1.741104 4.121675 1.418246 -0.736055 0.427073 -0.263051 -0.000774 -0.000267 -0.001337 -10.557874 7.757227 -1.439282 -62.135742 -4.230254 11.808288 179.998215 -50.445351 154.272659 -0.829892 19.520348 -0.031458 -28.814098 3.720962 0.000969 -50.307140 0.001580 0.000027 -25.576256 0.000442 -0.000945 -0.000183 0.000642 0.000746 -0.548297 1.626332 -10.711826 -24.268265 3.821565 -2.114473 -56.710712 -2.335123 -4.323796 -14.718360 -0.169531 -1.313581 0.000953 0.000359 0.000540 -0.133846 1.571063 -5.180633 -10.859303 5.861670 -2.380255 -42.872597 -3.440967 -8.750834 -30.395067 -1.756917 -6.497117 0.000428 -0.002458 -0.000438 -0.324337 -6.740150 -3.908126 -28.029354 13.475544 2.568498 -40.883736 1.245347 3.386390 -20.249775 0.314821 1.791417 -0.001514 -0.000166 -0.000581 -14.088593 9.544192 53.862015 -5.071179 7.061596 0.982004 0.000000 0.000000 0.000000 0.001385 0.000388 -0.000953 5.421856 -6.020735 1.954699 -0.001563 0.001788 2.230540 0.000000 0.000000 -0.000000 -0.000000 0.000000 0.000000 0.000000 0.000000 0.000000 0.000000 0.000000 0.000000 14.041142 -8.627954 0.655813 -0.001141 0.001647 0.840232 -0.000000 -0.000000 -0.000000 0.000000 -0.000000 -0.000000 0.000000 0.000000 0.000000 -0.000000 -0.000000 0.000000 
